PathFileType	4	(X/Y/Z)	Patient4_TMGait_0pt2_01_right_23.trc.trc
DataRate	CameraRate	NumFrames	NumMarkers	Units	OrigDataRate	OrigDataStartFrame	OrigNumFrames
44.728434504792	44.728434504792	5	33	mm	44.728434504792	18	       141
Frame#	Time	Sacral			L.Shoulder			Chest			R.Shoulder			Neck			R.ASIS			L.ASIS			R.Thigh.Superior			R.Thigh.Lateral			R.Thigh.Inferior			R.Patella			L.Thigh.Superior			L.Thigh.Lateral			L.Thigh.Inferior			L.Patella			L.Shank.Superior			L.Shank.Lateral			L.Shank.Inferior			R.Shank.Superior			R.Shank.Lateral			R.Shank.Inferior			R.Heel			R.Midfoot.Superior			R.Midfoot.Lateral			R.Toe			L.Heel			L.Midfoot.Lateral			L.Midfoot.Superior			L.Toe			L.Elbow			L.Wrist			R.Elbow			R.Wrist			
		X1	Y1	Z1	X2	Y2	Z2	X3	Y3	Z3	X4	Y4	Z4	X5	Y5	Z5	X6	Y6	Z6	X7	Y7	Z7	X8	Y8	Z8	X9	Y9	Z9	X10	Y10	Z10	X11	Y11	Z11	X12	Y12	Z12	X13	Y13	Z13	X14	Y14	Z14	X15	Y15	Z15	X16	Y16	Z16	X17	Y17	Z17	X18	Y18	Z18	X19	Y19	Z19	X20	Y20	Z20	X21	Y21	Z21	X22	Y22	Z22	X23	Y23	Z23	X24	Y24	Z24	X25	Y25	Z25	X26	Y26	Z26	X27	Y27	Z27	X28	Y28	Z28	X29	Y29	Z29	X30	Y30	Z30	X31	Y31	Z31	X32	Y32	Z32	X33	Y33	Z33	

18	52.010071428571	778.999172226975	1006.733628912777	389.691680926173	992.275580776527	1437.669982422497	252.311134146537	1055.972151808108	1366.983458648785	430.918434414599	939.440851452602	1438.298568180766	584.875202944025	939.648310831722	1498.097873123505	405.036706211788	985.576003179871	947.013668366153	548.342030288236	1018.904699024034	963.499680411689	274.923577879766	1062.364701582355	768.029579078725	522.600583714394	1009.788336841680	648.889315857708	591.430041073628	1097.793570076792	606.084877608394	515.142760994466	1123.825091549079	515.104566219384	534.871799604448	1046.262230634719	741.482467906955	313.675692050021	958.707557464542	625.835844559656	243.934200015710	1024.793823389621	548.167885724891	322.178110255817	1017.508770391530	480.316922718576	333.033837799830	986.819974075310	408.291647096509	323.189681484870	895.174400134409	297.951902789972	267.752233667057	927.960543795271	187.576867804982	348.745630444003	1089.277479908334	426.493034884404	547.928397703687	1012.933943371102	332.187334465409	619.250833017843	1056.866423367332	230.271665349351	570.115148163589	923.032436268554	59.704357921498	558.014793685575	1096.393622521779	118.267478504997	588.069928882343	1011.700029762148	51.249937028757	626.533884180927	1216.199267122330	70.308779384562	605.826410353037	787.847977947757	38.010404870576	386.432707253094	863.792825319963	35.001257636149	307.238708662182	946.867594496576	95.858008550577	337.109373509148	1075.665675229662	44.216876878476	310.858323924632	1147.376519747429	1146.500098203780	107.607172712776	1397.112427166709	1072.585534268267	139.471476628793	775.271629471567	1127.758885883694	663.642933756106	732.117567739859	869.960958418270	655.402757637876	
19	52.032428571429	779.969668284637	1007.245823870062	391.762643749136	994.869879651374	1437.240274986691	255.081115515189	1057.498660544570	1366.723970096429	434.132911133829	940.748270750463	1438.917071004604	587.467783560945	941.604863317637	1498.130435599105	407.444771460399	985.494773629153	946.543809772603	551.507484708400	1020.268835232787	963.375038748832	278.100311922083	1060.108594172850	765.917810981328	526.494535136849	1005.221950828946	647.139797355825	594.279081228560	1093.179093669054	604.105274038272	518.230017574095	1118.349343347105	515.153464763140	536.549230843769	1044.551573609774	740.643437817316	316.279254900648	955.638679024747	626.433417872637	245.166909601762	1020.159350985764	547.614968217876	323.169310096289	1011.834965428166	480.153125194489	333.712655966700	981.636239541642	408.518691178235	323.600750740885	890.124346957304	298.167735220413	268.007418893696	923.124761612933	187.672138932286	348.871584966360	1088.036183584013	425.888773692243	549.443962085269	1016.432800261596	327.422942730424	620.819643414957	1064.979102981585	227.674353085700	570.748469325339	938.334899842836	51.970971711489	558.638172034856	1110.258822611954	115.908612168562	587.437717474705	1027.985974894493	45.773233471600	626.309019246678	1232.085539531618	71.735775501440	603.719680744444	783.319122075440	37.969035360900	386.388110174942	859.240578653877	34.951824542024	307.225331443666	942.265270773420	95.824813464042	337.119299875468	1071.109823404720	44.288523608951	310.863967577019	1152.844228303429	1148.883218176009	110.214144466387	1405.833190804848	1087.092031743762	141.466137910163	771.570804788553	1131.400166630438	663.495404247480	722.905176032808	874.454782636069	653.394466480947	
20	52.054785714286	781.389160610940	1007.397067198002	394.275386089823	997.306910722704	1436.602985946260	258.231002618116	1059.171352285995	1366.289617612393	437.636422130445	942.327173002127	1439.200739264770	590.509906221636	943.568375945600	1497.906172961949	410.312221260493	986.026427479417	945.717560314025	554.879562580723	1022.013304447168	963.127684929307	281.504763806494	1058.627309513728	763.480815851925	530.350145971560	1001.414069254491	645.005387874356	596.879486556329	1089.409491331337	601.848382718276	521.047383066661	1113.324256381240	514.537790603164	537.944063086979	1043.401050375788	739.695240206002	319.004803891863	953.103246461540	626.911681545627	246.630499339343	1016.093914437669	546.963373556612	324.334121954758	1006.783449909536	479.848118103679	334.556472247929	976.926658690826	408.615058242076	324.191459966171	885.371819042016	298.408907093221	268.395799582329	918.450353500710	187.698920193127	349.039886731267	1086.555051144268	424.807769068343	550.653232780724	1018.777199507192	323.114427803333	621.747605277551	1070.948972685430	225.310822621374	570.791643049033	949.991621648548	46.433527025346	558.232324818392	1120.711904871072	113.583906123689	586.177223173982	1040.118191376356	41.753518314324	625.417133988607	1243.744442546821	71.911827234705	601.663985211303	778.790412733173	37.933879964762	386.339123443328	854.690596422260	34.905834524037	307.215366246193	937.674984243441	95.777855586249	337.136351498720	1066.560074397777	44.323220621961	310.863582797114	1157.711555623796	1150.741173848003	113.150732337189	1413.181223781538	1100.309453074344	143.641454446890	769.599646122693	1133.951012307644	664.216221422530	716.727755638256	877.670990440184	652.537084692470	
21	52.077142857143	783.275710190927	1007.243620172573	397.237911235419	999.598986079423	1435.822563459196	261.757870071628	1060.990921828975	1365.753174179240	441.434818700088	944.139786325064	1439.222328604634	593.986390282600	945.532766809588	1497.480949721361	413.628654292600	987.207485863380	944.629740483939	558.450699756768	1024.145838598581	962.802751412630	285.137931927688	1058.041121125050	760.860193543390	534.072673402396	998.548958068380	642.630887029447	599.189780130544	1086.639984378755	599.442117258220	523.540409566735	1108.991947598430	513.363315615920	539.038633039201	1042.835404453502	738.645965235424	321.814131148584	951.073162284869	627.286598253265	248.343994580144	1012.591175416470	546.228556749710	325.679476343828	1002.348320879359	479.415875091163	335.584292100929	972.681723613936	408.600596647308	324.979311800724	880.903430805642	298.696400364932	268.936358833193	913.937269136100	187.673234270999	349.255791046169	1085.009772578973	423.314190260481	551.556211844447	1020.096218795096	319.291418791029	622.147017070318	1074.817011363711	223.099491778903	570.338808337238	957.845524751576	42.832832975340	557.070712971719	1127.724041466852	111.219880434705	584.440706510814	1048.045041697843	39.019873378712	624.100606310070	1251.296318003194	70.809469657609	599.794890827825	774.265881117264	37.907156929996	386.291781028859	850.147201319117	34.866812065015	307.212964547493	933.106134159922	95.721870380967	337.158823777572	1062.020135719298	44.318324074708	310.856268200854	1161.998975186402	1152.119834318452	116.388412732489	1419.272658946523	1112.167170701842	145.992300624990	769.217672583582	1135.494872036483	665.922571476973	713.441283931137	879.662274397090	653.062631671526	
22	52.099500000000	785.618355680672	1006.858179518860	400.650503312814	1001.773709102699	1434.967441351024	265.643754658705	1062.961713778499	1365.184516260175	445.519086763582	946.158163498636	1439.059302155197	597.866403048213	947.505713472124	1496.918767050874	417.368198121031	989.042200729804	943.393004667817	562.209755714678	1026.645511181158	962.439635763312	288.990682867982	1058.405361796492	758.200920885204	537.598193154940	996.750605140001	640.176640701638	601.228417256320	1084.946562672105	597.012735996745	525.704422381218	1105.540721786852	511.766863695472	539.862130063018	1042.841380189801	737.510216964586	324.678373051856	949.496732596577	627.577096443550	250.325348191899	1009.626793962880	545.432193653613	327.213212864076	998.504990236495	478.877178937767	336.815226184748	968.879885828247	408.499979911563	325.979633946441	876.698389023326	299.052987238717	269.648790624141	909.582385513590	187.614453495641	349.524743678833	1083.578581807829	421.504332064789	552.189132156350	1020.613265379168	315.965160494510	622.184967330999	1076.779978015802	220.983645597586	569.523356393372	962.055606671989	40.821032581491	555.476021478064	1131.507802789755	108.811762966593	582.418735705915	1052.048437307157	37.352288080549	622.610553528779	1255.128911769610	68.576147360111	598.196862644276	769.751413590330	37.894727305150	386.252894767409	845.615637026629	34.840825631280	307.224013898352	928.569664532851	95.663647131552	337.185363846249	1057.493669114529	44.270349431755	310.841483611484	1165.738901050642	1153.061217804762	119.904703440829	1424.246805634828	1122.616574876014	148.511554161860	770.268058659053	1136.152570372255	668.673669749855	712.843617029896	880.541279136688	655.123090723158	
